<?xml version="1.0" encoding="UTF-8" standalone="no"?>
<svg
    viewBox="0 0 24 24"
    fill="currentColor"
    version="1.1"
    id="svg1"
    sodipodi:docname="experience.svg"
    inkscape:version="1.4.4 (dcaf3e7d9e, 2026-05-05)"
    xmlns:inkscape="http://www.inkscape.org/namespaces/inkscape"
    xmlns:sodipodi="http://sodipodi.sourceforge.net/DTD/sodipodi-0.dtd"
    xmlns="http://www.w3.org/2000/svg"
    xmlns:svg="http://www.w3.org/2000/svg">
    <defs id="defs1" />
    <sodipodi:namedview
        id="namedview1"
        pagecolor="#505050"
        bordercolor="#eeeeee"
        borderopacity="1"
        inkscape:showpageshadow="0"
        inkscape:pageopacity="0"
        inkscape:pagecheckerboard="0"
        inkscape:deskcolor="#505050"
        inkscape:zoom="33.458333"
        inkscape:cx="11.955168"
        inkscape:cy="11.970112"
        inkscape:current-layer="svg1" />
    <path
        d="M14 4.4375C15.3462 4.4375 16.4375 3.34619 16.4375 2H17.5625C17.5625 3.34619 18.6538 4.4375 20 4.4375V5.5625C18.6538 5.5625 17.5625 6.65381 17.5625 8H16.4375C16.4375 6.65381 15.3462 5.5625 14 5.5625V4.4375ZM1 11C4.31371 11 7 8.31371 7 5H9C9 8.31371 11.6863 11 15 11V13C11.6863 13 9 15.6863 9 19H7C7 15.6863 4.31371 13 1 13V11ZM4.87601 12C6.18717 12.7276 7.27243 13.8128 8 15.124 8.72757 13.8128 9.81283 12.7276 11.124 12 9.81283 11.2724 8.72757 10.1872 8 8.87601 7.27243 10.1872 6.18717 11.2724 4.87601 12ZM17.25 14C17.25 15.7949 15.7949 17.25 14 17.25V18.75C15.7949 18.75 17.25 20.2051 17.25 22H18.75C18.75 20.2051 20.2051 18.75 22 18.75V17.25C20.2051 17.25 18.75 15.7949 18.75 14H17.25Z"
        id="path1"
        style="fill:#101828;fill-opacity:1" />
</svg>
