<svg version="1.1" viewBox="0 0 264.58 264.58" xml:space="preserve" xmlns="http://www.w3.org/2000/svg"><path d="m220.01 264.45c-3.5812-.56319-8.1539-2.6252-11.751-5.2993-3.7752-2.806-7.9347-6.2168-11.055-9.0648-5.182-4.73-10.718-9.1551-14.615-11.683-2.6839-1.7411-3.7338-2.2427-5.2872-2.5262-2.3154-.42253-5.9804-2.0142-14.083-6.1158-9.1516-4.6325-19.274-10.105-34.401-18.597-14.392-8.0794-30.182-16.038-44.24-22.297-21.837-9.7233-41.521-16.595-55.559-19.397-1.5948-.31826-4.8831-.8559-7.3073-1.1948-5.8155-.81287-9.9819-1.8707-12.839-3.2598-4.8928-2.3788-7.7207-6.8532-7.3913-11.694.44835-6.5891 7.4005-15.626 13.111-17.043 3.101-.76933 4.5714-1.9405 6.4893-5.1687 1.6865-2.8389 5.1346-5.7209 8.9368-7.4701 2.7311-1.2563 4.5743-1.7116 7.0155-1.7326 1.9697-.017 2.2065.0347 3.8293.83665 3.1193 1.5414 5.4307 4.0266 9.9328 10.681 3.1254 4.6188 5.5452 7.5197 9.4506 11.33 6.5543 6.3947 12.867 10.753 22.938 15.835 5.6488 2.8508 15.586 8.1402 22.849 12.162 8.4887 4.7006 26.792 15.086 27.489 15.598.12758.0936 3.1027 1.7646 6.6113 3.7134 6.9221 3.8447 17.185 9.6882 18.674 10.632 1.2125.76866 15.112 8.0366 21.348 11.163 11.846 5.938 22.372 8.3304 40.357 9.1718 4.642.21718 14.212 1.0191 18.21 1.5257 4.1639.52776 7.7092 1.3287 9.6181 2.173 3.0115 1.3318 6.2757 4.307 6.9474 6.3324.88246 2.6606.90087 6.8016.0431 9.6522-.4273 1.4198-1.6525 2.9002-3.4789 4.2035-3.2539 2.3219-7.2787 3.6528-9.462 3.129-1.9905-.47751-2.6135.0624-6.4512 5.59-1.8839 2.7135-5.0159 5.8621-6.9744 7.0114-2.6724 1.5684-6.0849 2.2552-8.9587 1.8032zm3.4066-10.938c1.8849-.8993 3.2477-1.9165 3.2477-2.4241 0-.89701-2.265-1.0394-5.3354-.3355-1.0845.24862-2.4665.45472-3.0712.45799-2.1626.0118-4.8152-1.4616-8.6436-4.801-6.8066-5.9372-17.511-13.914-19.261-14.353-.77249-.19388-1.369-.0295-1.4516.40007-.13057.67803 1.0714 1.7491 3.0672 2.7333 3.1154 1.5363 6.6195 4.1667 11.462 8.6038 5.3482 4.9009 10.719 8.822 14.061 10.264 1.5561.67168 3.81.46434 5.9257-.54512zm16.31-15.966c.68197-.25929 1.1847-1.4892.85817-2.0993-.38364-.71684-1.9426-1.1649-4.0533-1.1649-1.1599 0-2.0169.10275-2.1098.25292-.24177.39119 1.5041 2.0594 2.7967 2.6723 1.2785.60618 1.6673.65875 2.5082.33907zm-182.78-70.502c.06691-.10827-.09657-.43108-.36328-.71737-1.7762-1.9065-9.5663-5.4471-17.362-7.891-5.7195-1.7932-7.1585-2.332-7.9051-2.9602-.7871-.6623-.84866-1.2621-.31423-3.0617.20006-.67367.32954-1.259.28773-1.3008-.1185-.1185-3.0367 3.6141-3.5119 4.4921-.64953 1.1999-.37662 1.7746 1.2271 2.5842 2.0012 1.0102 6.8894 2.6328 10.838 3.5974 3.8584.94269 10.662 3.1369 13.994 4.5131 2.2641.93515 2.8983 1.087 3.11.74454zm-25.928 91.7c-3.1987-.63566-6.825-2.8891-8.9009-5.531-1.1153-1.4196-3.3107-5.4455-3.3107-6.071 0-.69112-1.1436-2.5839-2.0629-3.4145-1.0875-.9825-2.8998-1.937-5.3447-2.8151-4.7134-1.6928-7.4169-3.804-8.9877-7.0192-.88412-1.8094-.88676-1.823-.88676-4.7264s.00263-2.9169.88053-4.6933c1.0289-2.0819 2.4067-3.4074 5.2641-5.0643 4.0114-2.3261 8.1766-3.132 14.24-2.7553 11.943.74189 26.678.84012 33.665.22443 13.17-1.1605 24.121-4.6852 41.38-13.319l6.7661-3.3846 2.4879 1.4352c6.4047 3.6946 21.162 12.644 21.162 12.833 0 .0402-.94287.45033-2.0953.91157-2.2114.88509-21.225 9.1955-33.745 14.749-4.0828 1.811-8.0495 3.5315-8.8149 3.8231-5.8931 2.2452-13.476 6.6984-22.154 13.01-9.3121 6.7731-17.12 10.732-23.288 11.807-2.4485.427-4.1036.42673-6.256-.00087zm10.007-9.9696c1.681-.49938 3.1774-1.5712 4.0941-2.9325.45578-.67679.82868-1.3707.82868-1.542 0-.3802-.64924-.26064-3.5956.66215-2.0262.63457-2.9783.79082-4.3922.72077-1.0548-.0523-2.584-1.8407-4.2451-4.9648-1.5989-3.0072-3.0361-5.2758-3.3424-5.2758-.3605 0-.20431 1.6992.39447 4.2916.32417 1.4034.78802 3.5694 1.0308 4.8132.68646 3.5172 1.1355 4.2041 3.0152 4.6119 1.12.24303 4.884.0101 6.212-.38443zm-19.03-20.325c.99197-.47394 1.7213-1.2766 2.0125-2.2153.23852-.76866-.74453-1.335-1.9757-1.138-1.2782.2044-3.1324 1.1744-3.5953 1.8808-.35108.53582-.3504.62153.0094 1.1706.73418 1.1205 1.6694 1.2001 3.5492.30197zm129.02-33.69c-9.5611-5.4813-12.319-7.1605-13.417-8.166l-.79663-.73007 1.0283-.74602c2.0238-1.4683 13.499-7.0465 31.997-15.553 10.168-4.6761 16.614-7.8648 21.458-10.616 10.672-6.0603 17.903-12.259 24.019-20.588 2.7314-3.7199 6.0814-7.7652 7.8127-9.4339 1.9654-1.8948 3.2065-2.3426 6.4218-2.3178 3.5819.0277 7.5251 1.3636 10.689 3.6212 2.6466 1.8885 4.1501 4.0186 4.4375 6.2862.08.63179.38934 1.5767.68727 2.0998.80254 1.409 3.0869 3.4044 5.5713 4.8665 4.7594 2.8011 7.8186 5.8202 10.012 9.8802 1.7191 3.1828 2.1961 4.8969 2.1838 7.8474-.016 3.8604-1.1066 6.6096-3.5518 8.9535-3.0338 2.9086-4.249 3.2212-21.539 5.5427-7.1068.95418-10.641 1.5893-16.935 3.0431-13.725 3.1706-29.545 8.0806-43.495 13.499-10.637 4.1318-18.095 7.0495-18.226 7.1307-.0792.0489-3.84-2.03-8.3574-4.6198zm61.843-23.922c1.9138-.33369 5.7708-1.2283 8.5712-1.9881 4.8653-1.32 5.8404-1.5308 9.5076-2.0552 2.033-.29069 3.519-1.051 4.4563-2.2799 1.0777-1.413 1.1483-2.3286.4274-5.5437-.33889-1.5114-.64067-2.7726-.67063-2.8027-.03-.0301-.24367.96163-.47493 2.2037-.23125 1.2422-.57409 2.6486-.76186 3.1255-.85243 2.1647-2.8124 2.9236-13.916 5.3874-7.8609 1.7444-11.664 3.263-11.664 4.6584 0 .086.23489.099.52196.0289.28706-.0701 2.0877-.40051 4.0016-.7342zm-92.034-4.3036c-2.7062-.37687-6.6-1.9098-8.9587-3.5268-2.4683-1.6922-8.8053-8.8667-11.55-13.077-3.1854-4.885-4.2873-7.4307-5.1731-11.951-.98294-5.016-1.9486-15.576-1.8325-20.039.0684-2.6306.1442-3.1484.52194-3.5656.24306-.26839.63969-.48799.88141-.48799 1.6146 0 7.0087 4.6032 8.9947 7.6757 1.4882 2.3026 2.408 5.6692 3.6071 13.202 1.289 8.0986 4.6955 12.716 10.855 14.714 3.7816 1.2264 5.4536 1.3998 13.496 1.3998 6.0796 0 7.8053-.0729 9.5339-.40247 4.4066-.8403 7.0816-2.0627 9.2524-4.228 1.8685-1.8636 2.7508-3.4449 4.1138-7.373.97215-2.8018 1.1926-3.7688 1.4656-6.4295.39658-3.8656.99924-6.2608 2.1857-8.6866 1.7064-3.489 3.5241-5.3099 7.0851-7.0979 2.2371-1.1232 3.455-1.387 3.6813-.79718.83889 2.1861-.0624 17.523-1.4447 24.585-.59435 3.0362-1.1674 4.5061-2.7272 6.9954-3.7622 6.0043-12.314 15.702-14.955 16.959-1.2096.5757-5.4064 1.3026-10.419 1.8047-4.2445.42511-16.376.63806-18.612.3267zm9.4041-17.676c-.26053-.28707-.63661-.78292-.83573-1.1019-.36578-.58593-.93076-3.9028-.75897-4.456.0511-.16469.15667-.58974.23455-.94453.39266-1.7891 4.5436-2.1197 5.4459-.43366.3776.70557.30227 2.1319-.18782 3.5564-.91411 2.6569-1.8103 3.9017-2.8092 3.9017-.34283 0-.82471-.23101-1.0888-.52194zm-6.8535-1.2331c-1.2169-.66026-1.7703-2.5361-1.3481-4.5696.33888-1.6324 1.1204-2.4476 2.0373-2.1251 1.8464.64932 2.5742 5.0305 1.0834 6.5213-.62043.62043-.89859.64764-1.7726.17342zm17.273-.0246c-.56206-.22597-1.2117-1.8836-1.2117-3.092 0-2.1825 1.3156-3.7116 3.1934-3.7116 1.5638 0 2.6825 1.9298 2.1268 3.6687-.77293 2.4192-2.5384 3.7662-4.1087 3.1348zm-24.677-1.7592c-.83296-.70412-1.1238-1.3512-1.1238-2.5005 0-.79347.14399-1.1103.80482-1.7711 1.1333-1.1333 1.9083-1.0193 2.632.38726.41601.80854.51638 1.3177.44517 2.2582-.15346 2.0267-1.409 2.7669-2.7582 1.6263zm6.0675-16.254c0-2.9414.32415-4.2531 1.3567-5.4898.52496-.62884.75369-.7435 1.2397-.62151.92139.23124 1.2932 1.3219 1.3578 3.9822.11429 4.7072.0905 4.7556-2.347 4.7556h-1.6073zm15.257 2.4607c-1.5238-.23152-2.0046-2.5053-1.0987-5.1948.5218-1.549 1.4651-3.1153 1.9994-3.3204 1.0866-.417 2.197 1.5052 2.3502 4.0689.12649 2.1169-.18676 3.2193-1.1436 4.0244-.68816.57904-.85416.61227-2.1073.42188zm-22.347-.87702c-1.0029-1.0634-1.4364-2.9475-1.0775-4.6832.31625-1.5297.79595-2.2552 1.8089-2.7358 1.1878-.56365 1.955-.38863 2.5188.57459.70799 1.2094.67677 4.8141-.0537 6.1976-.89035 1.6863-2.0038 1.9116-3.1966.64687zm14.218-.077c-.34253-.41065-.25513-4.0534.12911-5.3804.19139-.66105.49416-1.132.83799-1.3034 1.2014-.59895 2.9973.63609 3.4864 2.3977.37635 1.3553.30996 3.5897-.12512 4.2109-.34431.49156-.51366.52644-2.2222.45757-1.172-.0473-1.9435-.18729-2.1062-.3823zm15.292-.0709c-.70834-.41175-1.0802-1.6787-1.0802-3.6809 0-2.6633.64935-3.9436 2.0002-3.9436.64779 0 1.9098.97803 2.2903 1.7749.44159.92481.45624 3.5509.0256 4.5816-.56246 1.3462-2.0791 1.9404-3.236 1.268zm-24.162-9.4953c-1.7832-.20203-5.2866-1.2824-7.04-2.1709-2.2442-1.1372-4.017-2.7505-5.6026-5.0982-2.8221-4.1787-5.6686-6.1377-13.457-9.2612-8.6465-3.4679-13.469-6.7414-15.115-10.261-.60788-1.299-.71685-1.8054-.71685-3.3312 0-.9896.12395-2.1749.27544-2.634.49276-1.4931 2.7352-3.0607 5.8409-4.0832.99661-.32811 1.662-1.012 2.0599-2.1176.2055-.57078.34778-3.7744.47908-10.787.10272-5.4862.25579-10.758.34014-11.714.37119-4.2108 1.2207-7.3935 2.9983-11.233 1.4914-3.2213 6.0816-14.766 6.9707-17.532.91613-2.8498 1.2642-4.9416.86342-5.1893-1.5006-.92744-10.313 13.695-12.778 21.203-1.1548 3.5171-1.2152 4.2704-1.4216 17.739-.10755 7.0172-.26931 13.149-.35946 13.625-.25172 1.3302-.61226 1.4727-1.4849.58672-.96777-.98258-1.9105-2.6113-3.6607-6.3244-2.2859-4.8495-2.2661-4.6754-2.2661-19.95 0-15.973.01272-16.067 3.0277-22.276 2.5509-5.2535 6.1919-10.157 10.965-14.769 6.057-5.8518 11.301-9.334 18.793-12.478 4.7604-1.9979 8.2688-2.6962 16.394-3.263 5.6226-.39227 20.12-.17855 23.082.34026 2.3728.41563 6.9983 1.9195 10.88 3.5373 10.641 4.4353 19.77 12.837 24.737 22.767 3.4235 6.8445 4.6131 13.395 4.6207 25.445.004 7.1922-.23745 10.757-1.0423 15.355-.90403 5.1644-1.8439 7.2293-4.5455 9.9863-1.1536 1.1774-1.5615 1.4517-2.1588 1.4517-.64613 0-.79123-.1239-1.1834-1.0104-.58145-1.3144-.91393-5.1066-.91814-10.472-.004-4.3321-.22789-5.9154-.83876-5.9154-1.0588 0-1.916 1.2464-2.393 3.4797-.40163 1.8801-.69698 7.7229-.70524 13.952l-.007 5.4846 3.6262 1.0084c4.1423 1.152 5.6124 1.8873 6.5225 3.2625.53568.80949.63748 1.2094.63361 2.4892-.004 1.3162-.1257 1.7526-.88974 3.1896-1.9349 3.6395-6.8285 7.4464-12.676 9.8618-1.0845.44787-2.7025 1.1136-3.5956 1.4793-3.3278 1.3628-5.3844 3.0115-11.599 9.2989l-5.7994 5.8671-7.0911.35496c-7.3481.36781-20.924.4295-23.762.10798zm4.5931-17.761c.40833-.20789 1.2415-.74108 1.8515-1.1849 3.1063-2.26 5.3628-2.1934 9.0157.26638 1.4748.99319 1.7649 1.0263 1.9662.22429.77923-3.1047-3.1278-20.742-5.0523-22.808l-.48099-.51628-.75605.7328c-2.1942 2.1268-6.1957 12.35-7.0827 18.096-.14772.9569-.47873 2.4468-.73556 3.3108-.37327 1.2557-.40987 1.6397-.18244 1.9138.36049.43437.54362.42996 1.4571-.0352zm-15.844-16.537c3.7247-1.2952 7.03-3.3643 9.5392-5.9716 3.5825-3.723 5.528-8.1156 5.536-12.499.008-4.3347-1.7202-7.4104-5.621-10.004-9.2235-6.1315-20.395.41494-22.432 13.144-.13269.82932-.24204 2.5686-.243 3.8652-.0048 6.4291 2.1866 10.606 6.2616 11.936 1.145.37369 5.3474.089 6.9593-.47145zm50.445.08897c.75004-.19536 1.9969-.69121 2.7707-1.1019 1.7653-.93682 4.3858-3.3836 5.2645-4.9156.59387-1.0354.66937-1.3899.67131-3.1531.003-2.2936-.52171-6.5764-1.0754-8.7851-1.541-6.1484-5.2451-10.717-10.013-12.348-4.5122-1.5442-10.445.31108-14.296 4.4704-3.0752 3.3215-3.7716 7.1687-2.0428 11.284.7838 1.8655 3.4232 6.342 4.8234 8.1803 1.7079 2.2425 4.0777 4.2831 6.1777 5.3196 2.8613 1.4121 5.1402 1.7222 7.7195 1.0504z" fill="#fff"/></svg>
