<?xml version="1.0" encoding="UTF-8" standalone="no"?>
<!-- Created with Inkscape (http://www.inkscape.org/) -->

<svg
   width="298.44556mm"
   height="301.77243mm"
   viewBox="0 0 298.44556 301.77243"
   version="1.1"
   id="svg1"
   xml:space="preserve"
   xmlns="http://www.w3.org/2000/svg"
   xmlns:svg="http://www.w3.org/2000/svg"><defs
     id="defs1" /><g
     id="layer1"
     transform="translate(62.042779,378.83371)"><path
       style="fill:#ffffff"
       d="m 187.23054,-77.21711 c -4.08459,-0.64236 -9.30002,-2.99423 -13.40331,-6.04415 -4.30575,-3.2004 -9.05001,-7.0906 -12.60919,-10.33927 -5.91043,-5.39477 -12.22395,-10.44191 -16.66876,-13.3253 -3.06119,-1.98581 -4.25863,-2.55794 -6.03036,-2.88126 -2.64081,-0.48192 -6.821,-2.29726 -16.06235,-6.97544 -10.43754,-5.2837 -21.98275,-11.52495 -39.23575,-21.21053 -16.414903,-9.21508 -34.424111,-18.29182 -50.457997,-25.4311 -24.906779,-11.09005 -47.356783,-18.9278 -63.367707,-22.12294 -1.81901,-0.363 -5.569479,-0.97621 -8.334375,-1.36267 -6.632964,-0.92713 -11.385264,-2.13372 -14.643674,-3.71797 -5.58046,-2.71322 -8.80597,-7.81646 -8.43027,-13.33793 0.51137,-7.51534 8.44074,-17.82311 14.95356,-19.43887 3.536914,-0.87747 5.214036,-2.21329 7.401406,-5.89518 1.923611,-3.23791 5.856252,-6.52502 10.193307,-8.52011 3.115017,-1.43293 5.217348,-1.95216 8.00159,-1.9762 2.246577,-0.0194 2.516682,0.0396 4.367616,0.95425 3.557843,1.75811 6.194014,4.59261 11.329188,12.1815 3.5647,5.26801 6.32456201,8.57674 10.779359,12.92311 7.475571,7.29363 14.676117,12.26454 26.1625,18.06134 6.442792,3.25146 17.777016,9.28436 26.061457,13.87181 9.681915,5.36129 30.55773,17.20666 31.35312,17.79041 0.14552,0.1068 3.53881,2.01273 7.54063,4.23541 7.89511,4.38508 19.601,11.04951 21.29895,12.12599 1.38288,0.87671 17.23627,9.16619 24.34929,12.73184 13.51064,6.77266 25.5174,9.5014 46.02989,10.4611 5.29454,0.24771 16.21045,1.16227 20.76979,1.74015 4.74925,0.60194 8.7928,1.51547 10.9702,2.47843 3.43483,1.51904 7.15776,4.91242 7.9239,7.22249 1.00646,3.03463 1.02754,7.7576 0.0491,11.00857 -0.48736,1.61938 -1.88483,3.30791 -3.9679,4.79436 -3.71126,2.6483 -8.30175,4.16626 -10.79239,3.56876 -2.27026,-0.54463 -2.9809,0.0712 -7.35795,6.37569 -2.14868,3.09488 -5.72089,6.68611 -7.9547,7.99705 -3.04799,1.78876 -6.94025,2.57217 -10.21821,2.05666 z m 3.88541,-12.47611 c 2.14982,-1.02573 3.70417,-2.18589 3.70417,-2.76479 0,-1.02306 -2.5834,-1.18551 -6.08542,-0.38266 -1.23693,0.28357 -2.81323,0.51864 -3.50289,0.52237 -2.46665,0.0134 -5.49196,-1.66704 -9.85857,-5.47591 -7.76338,-6.7718 -19.97218,-15.87005 -21.96792,-16.37094 -0.88108,-0.22114 -1.56136,-0.0337 -1.65572,0.4563 -0.14893,0.77334 1.22197,1.99503 3.49828,3.1175 3.55333,1.7522 7.55005,4.75238 13.07273,9.81318 6.09997,5.58981 12.22586,10.06165 16.03676,11.70669 1.77475,0.7661 4.34546,0.52961 6.75858,-0.62174 z m 18.60343,-18.20981 c 0.77783,-0.29573 1.35125,-1.6985 0.97879,-2.39443 -0.43756,-0.8176 -2.2157,-1.32863 -4.623,-1.32863 -1.3229,0 -2.30041,0.11719 -2.40627,0.28847 -0.27575,0.44618 1.71552,2.34887 3.18976,3.04786 1.45816,0.69138 1.90172,0.75134 2.86072,0.38673 z M 1.252643,-188.31518 c 0.07632,-0.12349 -0.11014,-0.49168 -0.41434799,-0.81821 -2.02586001,-2.1745 -10.91062701,-6.21283 -19.80151301,-9.00023 -6.523525,-2.04521 -8.164738,-2.65979 -9.016309,-3.37634 -0.897735,-0.75539 -0.967949,-1.43954 -0.358398,-3.49212 0.228181,-0.76837 0.375859,-1.43605 0.328173,-1.48374 -0.135159,-0.13516 -3.463494,4.12211 -4.005531,5.12347 -0.740831,1.36861 -0.429555,2.02412 1.399647,2.9475 2.282493,1.1522 7.857775,3.00288 12.3606,4.10302 4.400718,1.07519 12.160636,3.57785 15.960568,5.14746 2.58226201,1.06663 3.305683,1.23982 3.547111,0.84919 z m -29.571536,104.58909 c -3.648257,-0.72501 -7.784335,-3.29523 -10.151572,-6.30835 -1.272079,-1.61915 -3.776085,-6.21091 -3.776085,-6.92445 0,-0.78827 -1.304295,-2.94713 -2.352869,-3.89446 -1.240424,-1.12065 -3.307384,-2.20933 -6.095954,-3.2108 -5.37591,-1.93066 -8.45937,-4.33871 -10.25129,-8.0058 -1.00843,-2.06371 -1.01135,-2.07926 -1.01135,-5.39069 0,-3.31143 0.003,-3.32689 1.00426,-5.35298 1.17352,-2.37447 2.74501,-3.88632 6.00404,-5.77617 4.57523,-2.6531 9.32588,-3.57226 16.242475,-3.14261 13.622001,0.84618 30.4276518,0.95821 38.39714501,0.25598 15.02064399,-1.32355 27.51091799,-5.34382 47.19710299,-15.19144 l 7.717234,-3.86039 2.837622,1.6369 c 7.305002,4.21393 24.13658,14.42096 24.13658,14.63694 0,0.0458 -1.075404,0.51363 -2.389786,1.0397 -2.522221,1.0095 -24.208555,10.48817 -38.488338,16.82249 -4.656666,2.06564 -9.181041,4.02788 -10.054166,4.36053 -6.721367,2.56081 -15.369763,7.63989 -25.267708,14.83938 -10.620742,7.72522 -19.52618,12.24043 -26.561984,13.46737 -2.792723,0.48701 -4.680428,0.48671 -7.135357,-10e-4 z m 11.413813,-11.3708 c 1.917306,-0.56958 3.623981,-1.79201 4.669618,-3.34469 0.519839,-0.77192 0.945161,-1.56336 0.945161,-1.75877 0,-0.43364 -0.740502,-0.29727 -4.101042,0.75523 -2.310954,0.72377 -3.396933,0.90198 -5.009577,0.82208 -1.203148,-0.0596 -2.947188,-2.09936 -4.841773,-5.66271 -1.823635,-3.42991 -3.462874,-6.01742 -3.812151,-6.01742 -0.411168,0 -0.233027,1.93806 0.449916,4.89479 0.369735,1.60073 0.898784,4.07113 1.175663,5.48979 0.782951,4.01161 1.295085,4.79496 3.438964,5.26017 1.277374,0.27719 5.570534,0.0115 7.085221,-0.43847 z m -21.705296,-23.18201 c 1.131442,-0.54056 1.963178,-1.45613 2.295396,-2.52674 0.272049,-0.87671 -0.849184,-1.52257 -2.253424,-1.29802 -1.457909,0.23313 -3.57274,1.33949 -4.100692,2.14524 -0.400428,0.61113 -0.399648,0.70889 0.01067,1.33511 0.837378,1.278 1.904019,1.36875 4.048054,0.34441 z m 147.151496,-38.42527 c -10.90473,-6.25183 -14.0514,-8.16701 -15.30279,-9.31382 l -0.90861,-0.83269 1.1728,-0.85088 c 2.30831,-1.67472 15.39736,-8.03703 36.49467,-17.7393 11.59736,-5.33341 18.94858,-8.97032 24.47396,-12.10813 12.17174,-6.91221 20.41994,-13.98227 27.39535,-23.48231 3.1153,-4.24283 6.93616,-8.85674 8.91093,-10.76049 2.24169,-2.16107 3.65716,-2.67193 7.32454,-2.64355 4.08536,0.0316 8.58289,1.55532 12.19133,4.13025 3.01858,2.15401 4.73347,4.58336 5.06125,7.16985 0.0913,0.7206 0.44407,1.79833 0.78388,2.39494 0.91534,1.60706 3.52078,3.88292 6.35443,5.55062 5.42835,3.19475 8.91762,6.63833 11.41891,11.26941 1.96073,3.63023 2.50476,5.58518 2.49075,8.95043 -0.0183,4.40296 -1.26217,7.53863 -4.05097,10.21222 -3.46032,3.31739 -4.84626,3.67403 -24.56685,6.3218 -8.1058,1.08831 -12.13671,1.81266 -19.31458,3.47079 -15.65445,3.61627 -33.69809,9.2164 -49.60939,15.39705 -12.13198,4.7126 -20.63757,8.04039 -20.78751,8.13305 -0.0903,0.0558 -4.37976,-2.31534 -9.5321,-5.26924 z m 70.53629,-27.28485 c 2.18281,-0.3806 6.58199,-1.40104 9.77597,-2.26765 5.5492,-1.50563 6.66131,-1.74604 10.84416,-2.34414 2.31873,-0.33155 4.0136,-1.19868 5.08274,-2.60042 1.22922,-1.61162 1.30973,-2.65588 0.48748,-6.32291 -0.38653,-1.72383 -0.73073,-3.16233 -0.7649,-3.19666 -0.0342,-0.0343 -0.27792,1.09676 -0.54169,2.51354 -0.26375,1.41678 -0.65478,3.02093 -0.86895,3.56478 -0.97225,2.46903 -3.20772,3.33449 -15.87165,6.14466 -8.96594,1.98957 -13.30254,3.72167 -13.30254,5.31323 0,0.0981 0.2679,0.11294 0.59532,0.033 0.32741,-0.08 2.38124,-0.4568 4.56406,-0.8374 z m -104.969119,-4.90853 c -3.086625,-0.42985 -7.527713,-2.17821 -10.217845,-4.02254 -2.815257,-1.93012 -10.043081,-10.11285 -13.174309,-14.91484 -3.633071,-5.57161 -4.889939,-8.47523 -5.90028,-13.63085 -1.121134,-5.72099 -2.222533,-17.76476 -2.090147,-22.85572 0.07802,-3.00045 0.164469,-3.59098 0.595307,-4.06675 0.277215,-0.30612 0.729612,-0.55659 1.005327,-0.55659 1.841591,0 7.993927,5.25017 10.258943,8.75459 1.69739,2.62619 2.74651,6.46608 4.114065,15.05791 1.47025,9.23702 5.355485,14.50331 12.380773,16.78165 4.313183,1.3988 6.220164,1.59659 15.393115,1.59659 6.93422,0 8.90238,-0.0831 10.87397,-0.45905 5.02597,-0.95841 8.077,-2.3526 10.55315,-4.82231 2.13111,-2.12558 3.13735,-3.92907 4.69196,-8.40944 1.10883,-3.19564 1.36026,-4.29865 1.67159,-7.33327 0.45232,-4.40895 1.1397,-7.14085 2.49288,-9.90759 1.94624,-3.97935 4.0195,-6.05634 8.08103,-8.09559 2.55156,-1.28111 3.94062,-1.58191 4.19875,-0.90924 0.95681,2.49341 -0.0712,19.98622 -1.64784,28.04054 -0.67789,3.46295 -1.33149,5.13952 -3.11046,7.97867 -4.29103,6.84827 -14.04486,17.90905 -17.05727,19.34282 -1.37959,0.65663 -6.16627,1.4857 -11.88422,2.05839 -4.84112,0.48487 -18.678384,0.72775 -21.228489,0.37262 z M 84.83458,-209.0589 c -0.29715,-0.32742 -0.72609,-0.89297 -0.9532,-1.25677 -0.4172,-0.6683 -1.06156,-4.45145 -0.86566,-5.08244 0.0583,-0.18784 0.1787,-0.67263 0.26752,-1.07733 0.44785,-2.04055 5.18228,-2.41755 6.21141,-0.49461 0.43068,0.80474 0.34476,2.43163 -0.21421,4.05633 -1.04261,3.03038 -2.06482,4.45013 -3.20408,4.45013 -0.39102,0 -0.94063,-0.26348 -1.24178,-0.59531 z m -7.81687,-1.40636 c -1.387909,-0.75307 -2.019128,-2.89263 -1.537644,-5.21192 0.386508,-1.8618 1.277902,-2.79158 2.32372,-2.42379 2.105852,0.74059 2.936016,5.73758 1.235682,7.43791 -0.707639,0.70764 -1.024909,0.73868 -2.021758,0.1978 z m 19.70106,-0.028 c -0.64107,-0.25773 -1.38199,-2.14842 -1.38199,-3.52658 0,-2.48934 1.50051,-4.23333 3.64232,-4.23333 1.78356,0 3.05955,2.201 2.42584,4.18441 -0.88157,2.75918 -2.89519,4.29555 -4.68617,3.5755 z m -28.146128,-2.00654 c -0.950041,-0.8031 -1.281695,-1.54109 -1.281695,-2.85202 0,-0.90501 0.164215,-1.2664 0.917939,-2.02012 1.292608,-1.29261 2.176536,-1.16256 3.001958,0.44169 0.474492,0.92219 0.588964,1.50287 0.507739,2.57558 -0.175027,2.31155 -1.606957,3.15583 -3.145941,1.85487 z m 6.920388,-18.53853 c 0,-3.35478 0.369719,-4.85087 1.547362,-6.26149 0.598764,-0.71723 0.859633,-0.848 1.414005,-0.70887 1.050865,0.26375 1.474998,1.50766 1.54867,4.54198 0.130354,5.36891 0.103188,5.42396 -2.676853,5.42396 H 75.49303 Z m 17.40226,2.80664 c -1.73797,-0.26407 -2.28644,-2.85749 -1.25306,-5.92504 0.59515,-1.76668 1.67095,-3.55318 2.28053,-3.78709 1.23945,-0.47562 2.50575,1.71679 2.68046,4.64081 0.14427,2.41453 -0.21302,3.6718 -1.3044,4.59014 -0.78489,0.66044 -0.97422,0.69834 -2.40353,0.48118 z m -25.487918,-1.00034 c -1.143888,-1.21288 -1.638339,-3.36178 -1.22905,-5.34149 0.360697,-1.74468 0.907829,-2.57217 2.063198,-3.12043 1.354737,-0.64287 2.229821,-0.44325 2.872947,0.65536 0.807495,1.37939 0.771889,5.49085 -0.06122,7.06876 -1.015487,1.92334 -2.285396,2.18033 -3.645878,0.7378 z m 16.217488,-0.0878 c -0.39068,-0.46837 -0.29099,-4.62307 0.14725,-6.13672 0.2183,-0.75397 0.56362,-1.29109 0.95578,-1.4866 1.37026,-0.68314 3.41856,0.72551 3.9765,2.7347 0.42925,1.5458 0.35353,4.09427 -0.14271,4.80276 -0.39271,0.56066 -0.58586,0.60044 -2.53457,0.52189 -1.33669,-0.0539 -2.21672,-0.21361 -2.40225,-0.43603 z m 17.44181,-0.0809 c -0.80791,-0.46963 -1.23197,-1.91474 -1.23197,-4.19826 0,-3.03769 0.74062,-4.49792 2.28133,-4.49792 0.73885,0 2.17829,1.11549 2.61225,2.02436 0.50366,1.05485 0.52037,4.04996 0.0292,5.2256 -0.64152,1.53537 -2.37132,2.21319 -3.69076,1.44622 z m -27.558015,-10.82996 c -2.033795,-0.23043 -6.029687,-1.46264 -8.029649,-2.4761 -2.559664,-1.29708 -4.581697,-3.13706 -6.390143,-5.8148 -3.218817,-4.76607 -6.465427,-7.00044 -15.349026,-10.56347 -9.861916,-3.9554 -15.362239,-7.68898 -17.240487,-11.7027 -0.693319,-1.48159 -0.817613,-2.05918 -0.817613,-3.79945 0,-1.12874 0.14137,-2.48061 0.314156,-3.00415 0.562022,-1.70295 3.119676,-3.49091 6.661877,-4.65708 1.13673,-0.37423 1.895581,-1.15428 2.349522,-2.41515 0.234381,-0.65101 0.396661,-4.3049 0.546418,-12.30312 0.117162,-6.2574 0.291738,-12.27005 0.387948,-13.36146 0.423369,-4.80272 1.392253,-8.43266 3.419729,-12.81208 1.700963,-3.67414 6.936409,-16.84184 7.950459,-19.99625 1.044901,-3.25038 1.441869,-5.63622 0.984785,-5.91871 -1.711499,-1.05777 -11.762551,15.61993 -14.573936,24.18251 -1.317103,4.01148 -1.385958,4.87069 -1.62142,20.23307 -0.122673,8.00365 -0.307169,14.99666 -0.409991,15.54004 -0.287099,1.5172 -0.698318,1.67969 -1.693574,0.66919 -1.103829,-1.12073 -2.179012,-2.97827 -4.175262,-7.2134 -2.607185,-5.53124 -2.584625,-5.33262 -2.584625,-22.75416 0,-18.21822 0.01451,-18.325 3.453296,-25.40684 2.909513,-5.99187 7.062272,-11.58533 12.505967,-16.84462 6.908396,-6.67438 12.890267,-10.6462 21.434626,-14.23211 5.429511,-2.27867 9.431143,-3.07516 18.697776,-3.72165 6.412932,-0.44741 22.947862,-0.20365 26.326042,0.38809 2.7063,0.47405 7.98203,2.18928 12.40932,4.03449 12.13749,5.05867 22.54926,14.64112 28.21413,25.96681 3.90472,7.80665 5.26149,15.27822 5.27017,29.02208 0.005,8.20317 -0.27083,12.26924 -1.18881,17.51337 -1.03111,5.89034 -2.10308,8.24548 -5.18443,11.39027 -1.31577,1.34286 -1.78105,1.65573 -2.46228,1.65573 -0.73695,0 -0.90245,-0.14131 -1.34972,-1.15242 -0.66318,-1.49925 -1.04238,-5.82441 -1.04718,-11.94445 -0.004,-4.94105 -0.25993,-6.74688 -0.95666,-6.74688 -1.20758,0 -2.18526,1.42162 -2.72938,3.96875 -0.45809,2.14441 -0.79495,8.80851 -0.80437,15.91276 l -0.008,6.25546 4.13586,1.15016 c 4.72461,1.3139 6.40131,2.15257 7.43932,3.7211 0.61098,0.92327 0.72709,1.37942 0.72267,2.83912 -0.005,1.50119 -0.14337,1.99888 -1.01475,3.63792 -2.2069,4.1511 -7.7883,8.49308 -14.4581,11.24751 -1.23693,0.51082 -3.0824,1.27008 -4.10105,1.68725 -3.79559,1.55442 -6.14117,3.43483 -13.22916,10.60556 l -6.61459,6.6918 -8.08785,0.40485 c -8.38099,0.41952 -23.864939,0.48988 -27.101725,0.12316 z m 5.23866,-20.25776 c 0.465716,-0.23711 1.41597,-0.84525 2.111675,-1.35143 3.54293,-2.57774 6.11664,-2.5017 10.2826,0.30382 1.68213,1.13282 2.01297,1.17056 2.24256,0.25582 0.88876,-3.54113 -3.56737,-23.65734 -5.76251,-26.01355 l -0.5486,-0.58885 -0.86232,0.8358 c -2.50264,2.42566 -7.066598,14.08624 -8.078306,20.6395 -0.168493,1.09141 -0.546024,2.79068 -0.838956,3.77616 -0.425726,1.43223 -0.467481,1.87025 -0.208078,2.18281 0.411164,0.49542 0.620032,0.49039 1.661935,-0.0401 z m -18.070952,-18.86091 c 4.248312,-1.47716 8.018235,-3.83723 10.879799,-6.81101 4.086083,-4.24632 6.305014,-9.25632 6.314207,-14.25648 0.0091,-4.94404 -1.962028,-8.45201 -6.411113,-11.40976 -10.51964,-6.99344 -23.261963,0.47326 -25.58498,14.99219 -0.15134,0.94589 -0.276064,2.92971 -0.277163,4.4085 -0.0055,7.33282 2.493915,12.09734 7.141751,13.61428 1.30592,0.42622 6.099093,0.10151 7.937499,-0.53772 z m 57.535877,0.10148 c 0.85547,-0.22282 2.27755,-0.78837 3.16019,-1.25677 2.01345,-1.06851 5.00228,-3.85923 6.00453,-5.60654 0.67735,-1.18089 0.76346,-1.58534 0.76567,-3.5963 0.003,-2.61604 -0.59504,-7.50077 -1.22651,-10.02035 -1.75755,-7.01264 -5.98245,-12.22277 -11.42062,-14.08391 -5.14636,-1.76126 -11.91337,0.35481 -16.30543,5.09877 -3.50735,3.78835 -4.30175,8.17635 -2.32988,12.86952 0.89397,2.12773 3.90445,7.23342 5.50141,9.33024 1.94795,2.55768 4.65092,4.88517 7.04607,6.06726 3.2635,1.61065 5.8627,1.96434 8.80457,1.19808 z"
       id="path1" /></g></svg>
