<?xml version="1.0" encoding="UTF-8" standalone="no"?>
<!-- Created with Inkscape (http://www.inkscape.org/) -->

<svg
   width="220"
   height="145"
   viewBox="0 0 58.208332 38.364581"
   version="1.1"
   id="svg1"
   inkscape:version="1.4.4 (dcaf3e7d9e, 2026-05-05)"
   sodipodi:docname="logo.svg"
   xmlns:inkscape="http://www.inkscape.org/namespaces/inkscape"
   xmlns:sodipodi="http://sodipodi.sourceforge.net/DTD/sodipodi-0.dtd"
   xmlns="http://www.w3.org/2000/svg"
   xmlns:svg="http://www.w3.org/2000/svg">
  <sodipodi:namedview
     id="namedview1"
     pagecolor="#505050"
     bordercolor="#eeeeee"
     borderopacity="1"
     inkscape:showpageshadow="0"
     inkscape:pageopacity="0"
     inkscape:pagecheckerboard="0"
     inkscape:deskcolor="#505050"
     inkscape:document-units="px"
     inkscape:zoom="2.0233293"
     inkscape:cx="41.515733"
     inkscape:cy="69.934242"
     inkscape:current-layer="layer1"
     showguides="true"
     showgrid="true">
    <inkscape:grid
       id="grid47"
       units="px"
       originx="0"
       originy="-19.84375"
       spacingx="0.26458333"
       spacingy="0.26458331"
       empcolor="#0099e5"
       empopacity="0.30196078"
       color="#0099e5"
       opacity="0.14901961"
       empspacing="5"
       enabled="true"
       visible="true" />
  </sodipodi:namedview>
  <defs
     id="defs1">
    <inkscape:perspective
       sodipodi:type="inkscape:persp3d"
       inkscape:vp_x="0 : 29.104161 : 1"
       inkscape:vp_y="0 : 1000 : 0"
       inkscape:vp_z="18.520851 : 29.104161 : 1"
       inkscape:persp3d-origin="9.2604255 : 26.017354 : 1"
       id="perspective30" />
  </defs>
  <g
     inkscape:label="Layer 1"
     inkscape:groupmode="layer"
     id="layer1"
     transform="translate(-606.48204,659.00781)">
    <path
       id="path20"
       style="fill:#171717;fill-opacity:1;stroke-width:0.264583;stroke-linecap:round;paint-order:stroke fill markers"
       d="M 606.48204 -659.00781 L 606.48204 -640.48698 L 625.00287 -640.48698 L 625.00287 -643.13281 L 609.12787 -643.13281 L 609.12787 -648.42448 L 621.03412 -648.42448 L 621.03412 -651.07031 L 609.12787 -651.07031 L 609.12787 -656.36198 L 625.00287 -656.36198 L 625.00287 -659.00781 L 606.48204 -659.00781 z M 626.32579 -659.00781 L 626.32579 -640.48698 L 628.97162 -640.48698 L 628.97162 -656.36198 L 642.20079 -656.36198 L 642.20079 -640.48698 L 644.84662 -640.48698 L 644.84662 -659.00781 L 626.32579 -659.00781 z M 646.16954 -659.00781 L 646.16954 -656.36198 L 654.10704 -656.36198 L 654.10704 -643.13281 L 646.16954 -643.13281 L 646.16954 -640.48698 L 664.69037 -640.48698 L 664.69037 -643.13281 L 656.75287 -643.13281 L 656.75287 -656.36198 L 664.69037 -656.36198 L 664.69037 -659.00781 L 646.16954 -659.00781 z M 610.45079 -655.03906 L 610.45079 -652.39323 L 622.35704 -652.39323 L 622.35704 -647.10156 L 610.45079 -647.10156 L 610.45079 -644.45573 L 625.00287 -644.45573 L 625.00287 -655.03906 L 610.45079 -655.03906 z M 630.29454 -655.03906 L 630.29454 -640.48698 L 632.94037 -640.48698 L 632.94037 -652.39323 L 638.23204 -652.39323 L 638.23204 -640.48698 L 640.87787 -640.48698 L 640.87787 -655.03906 L 630.29454 -655.03906 z M 646.16954 -655.03906 L 646.16954 -652.39323 L 650.13829 -652.39323 L 650.13829 -647.10156 L 646.16954 -647.10156 L 646.16954 -644.45573 L 652.78412 -644.45573 L 652.78412 -655.03906 L 646.16954 -655.03906 z M 658.07579 -655.03906 L 658.07579 -644.45573 L 664.69037 -644.45573 L 664.69037 -647.10156 L 660.72162 -647.10156 L 660.72162 -652.39323 L 664.69037 -652.39323 L 664.69037 -655.03906 L 658.07579 -655.03906 z M 634.26329 -651.07031 L 634.26329 -640.48698 L 636.90912 -640.48698 L 636.90912 -651.07031 L 634.26329 -651.07031 z M 646.16954 -651.07031 L 646.16954 -648.42448 L 648.81537 -648.42448 L 648.81537 -651.07031 L 646.16954 -651.07031 z M 662.04454 -651.07031 L 662.04454 -648.42448 L 664.69037 -648.42448 L 664.69037 -651.07031 L 662.04454 -651.07031 z M 606.48204 -639.16406 L 606.48204 -620.64323 L 609.12787 -620.64323 L 609.12787 -636.51823 L 622.35704 -636.51823 L 622.35704 -620.64323 L 625.00287 -620.64323 L 625.00287 -639.16406 L 606.48204 -639.16406 z M 626.32579 -639.16406 L 626.32579 -636.51823 L 630.29454 -636.51823 L 630.29454 -623.28906 L 626.32579 -623.28906 L 626.32579 -620.64323 L 644.84662 -620.64323 L 644.84662 -639.16406 L 626.32579 -639.16406 z M 646.16954 -639.16406 L 646.16954 -620.64323 L 664.69037 -620.64323 L 664.69037 -639.16406 L 662.04454 -639.16406 L 662.04454 -623.28906 L 648.81537 -623.28906 L 648.81537 -639.16406 L 646.16954 -639.16406 z M 650.13829 -639.16406 L 650.13829 -624.61198 L 660.72162 -624.61198 L 660.72162 -639.16406 L 658.07579 -639.16406 L 658.07579 -627.25781 L 652.78412 -627.25781 L 652.78412 -639.16406 L 650.13829 -639.16406 z M 654.10704 -639.16406 L 654.10704 -628.58073 L 656.75287 -628.58073 L 656.75287 -639.16406 L 654.10704 -639.16406 z M 632.94037 -636.51823 L 642.20079 -636.51823 L 642.20079 -623.28906 L 632.94037 -623.28906 L 632.94037 -636.51823 z M 610.45079 -635.19531 L 610.45079 -620.64323 L 613.09662 -620.64323 L 613.09662 -632.54948 L 618.38829 -632.54948 L 618.38829 -620.64323 L 621.03412 -620.64323 L 621.03412 -635.19531 L 610.45079 -635.19531 z M 626.32579 -635.19531 L 626.32579 -624.61198 L 628.97162 -624.61198 L 628.97162 -635.19531 L 626.32579 -635.19531 z M 634.26329 -635.19531 L 634.26329 -632.54948 L 638.23204 -632.54948 L 638.23204 -627.25781 L 634.26329 -627.25781 L 634.26329 -624.61198 L 640.87787 -624.61198 L 640.87787 -635.19531 L 634.26329 -635.19531 z M 614.41954 -631.22656 L 614.41954 -620.64323 L 617.06537 -620.64323 L 617.06537 -631.22656 L 614.41954 -631.22656 z M 634.26329 -631.22656 L 634.26329 -628.58073 L 636.90912 -628.58073 L 636.90912 -631.22656 L 634.26329 -631.22656 z " />
  </g>
</svg>
