<?xml version="1.0" encoding="UTF-8" standalone="no"?>
<svg
    viewBox="0 0 24 24"
    fill="currentColor"
    version="1.1"
    id="svg1"
    sodipodi:docname="servers.svg"
    inkscape:version="1.4.4 (dcaf3e7d9e, 2026-05-05)"
    xmlns:inkscape="http://www.inkscape.org/namespaces/inkscape"
    xmlns:sodipodi="http://sodipodi.sourceforge.net/DTD/sodipodi-0.dtd"
    xmlns="http://www.w3.org/2000/svg"
    xmlns:svg="http://www.w3.org/2000/svg">
    <defs id="defs1" />
    <sodipodi:namedview
        id="namedview1"
        pagecolor="#505050"
        bordercolor="#eeeeee"
        borderopacity="1"
        inkscape:showpageshadow="0"
        inkscape:pageopacity="0"
        inkscape:pagecheckerboard="0"
        inkscape:deskcolor="#505050"
        inkscape:zoom="33.458333"
        inkscape:cx="11.955168"
        inkscape:cy="11.970112"
        inkscape:current-layer="svg1" />
    <path
        d="M12 2C15.866 2 19 5.13401 19 9C19 9.11351 18.9973 9.22639 18.992 9.33857C21.3265 10.16 23 12.3846 23 15C23 18.3137 20.3137 21 17 21H7C3.68629 21 1 18.3137 1 15C1 12.3846 2.67346 10.16 5.00804 9.33857C5.0027 9.22639 5 9.11351 5 9C5 5.13401 8.13401 2 12 2ZM12 4C9.23858 4 7 6.23858 7 9C7 9.08147 7.00193 9.16263 7.00578 9.24344L7.07662 10.7309L5.67183 11.2252C4.0844 11.7837 3 13.2889 3 15C3 17.2091 4.79086 19 7 19H17C19.2091 19 21 17.2091 21 15C21 12.79 19.21 11 17 11C15.233 11 13.7337 12.1457 13.2042 13.7347L11.3064 13.1021C12.1005 10.7185 14.35 9 17 9C17 6.23858 14.7614 4 12 4Z"
        id="path1"
        style="fill:#101828;fill-opacity:1" />
</svg>
