<?xml version="1.0" encoding="UTF-8" standalone="no"?>
<svg
    viewBox="0 0 24 24"
    fill="currentColor"
    version="1.1"
    id="svg1"
    sodipodi:docname="pages-line.svg"
    inkscape:version="1.4.4 (dcaf3e7d9e, 2026-05-05)"
    xmlns:inkscape="http://www.inkscape.org/namespaces/inkscape"
    xmlns:sodipodi="http://sodipodi.sourceforge.net/DTD/sodipodi-0.dtd"
    xmlns="http://www.w3.org/2000/svg"
    xmlns:svg="http://www.w3.org/2000/svg">
    <defs id="defs1" />
    <sodipodi:namedview
        id="namedview1"
        pagecolor="#505050"
        bordercolor="#eeeeee"
        borderopacity="1"
        inkscape:showpageshadow="0"
        inkscape:pageopacity="0"
        inkscape:pagecheckerboard="0"
        inkscape:deskcolor="#505050"
        inkscape:zoom="23.658614"
        inkscape:cx="8.5381162"
        inkscape:cy="12.19429"
        inkscape:current-layer="svg1" />
    <path
        d="M5 8V20H19V8H5ZM5 6H19V4H5V6ZM20 22H4C3.44772 22 3 21.5523 3 21V3C3 2.44772 3.44772 2 4 2H20C20.5523 2 21 2.44772 21 3V21C21 21.5523 20.5523 22 20 22ZM7 10H11V14H7V10ZM7 16H17V18H7V16ZM13 11H17V13H13V11Z"
        id="path1"
        style="fill:#22292b;fill-opacity:1" />
</svg>
